HIERARCHY
ROOT joint_Root
{
	OFFSET 0.0 0.0 0.0
	CHANNELS 6 Xposition Yposition Zposition Zrotation Xrotation Yrotation 
	JOINT Hips
	{
		OFFSET -17.1583 93.1646 452.98
		CHANNELS 6 Xposition Yposition Zposition Zrotation Xrotation Yrotation 
		JOINT Spine
		{
			OFFSET 15.7357 0.0 0.0
			CHANNELS 6 Xposition Yposition Zposition Zrotation Xrotation Yrotation 
			JOINT Chest
			{
				OFFSET 8.98455 -0.406207 0.0
				CHANNELS 6 Xposition Yposition Zposition Zrotation Xrotation Yrotation 
				JOINT Neck
				{
					OFFSET 16.3773 0.0 0.0
					CHANNELS 6 Xposition Yposition Zposition Zrotation Xrotation Yrotation 
					JOINT Head
					{
						OFFSET 6.45672 0.0 0.0
						CHANNELS 6 Xposition Yposition Zposition Zrotation Xrotation Yrotation 
						End Site
						{
							OFFSET 0.0 0.0 0.0
						}
					}
				}
				JOINT Shoulder_L
				{
					OFFSET 12.9942 -0.242716 4.98039
					CHANNELS 6 Xposition Yposition Zposition Zrotation Xrotation Yrotation 
					JOINT UpperArm_L
					{
						OFFSET 5.34809 0.0 0.0
						CHANNELS 6 Xposition Yposition Zposition Zrotation Xrotation Yrotation 
						JOINT LowerArm_L
						{
							OFFSET 24.3286 1.87007e-05 0.0
							CHANNELS 6 Xposition Yposition Zposition Zrotation Xrotation Yrotation 
							JOINT Hand_L
							{
								OFFSET 22.2916 0.0 0.0
								CHANNELS 6 Xposition Yposition Zposition Zrotation Xrotation Yrotation 
								End Site
								{
									OFFSET 0.0 0.0 0.0
								}
							}
						}
					}
				}
				JOINT Shoulder_R
				{
					OFFSET 12.9945 -0.242716 -4.98039
					CHANNELS 6 Xposition Yposition Zposition Zrotation Xrotation Yrotation 
					JOINT UpperArm_R
					{
						OFFSET -5.34813 0.0 0.0
						CHANNELS 6 Xposition Yposition Zposition Zrotation Xrotation Yrotation 
						JOINT LowerArm_R
						{
							OFFSET -24.3289 0.000322201 0.0
							CHANNELS 6 Xposition Yposition Zposition Zrotation Xrotation Yrotation 
							JOINT Hand_R
							{
								OFFSET -22.2915 -0.000108084 0.0
								CHANNELS 6 Xposition Yposition Zposition Zrotation Xrotation Yrotation 
								End Site
								{
									OFFSET 0.0 0.0 0.0
								}
							}
						}
					}
				}
			}
		}
		JOINT UpperLeg_L
		{
			OFFSET -2.19248 -6.46944 0.0
			CHANNELS 6 Xposition Yposition Zposition Zrotation Xrotation Yrotation 
			JOINT LowerLeg_L
			{
				OFFSET 39.0811 0.0 -1.23785e-05
				CHANNELS 6 Xposition Yposition Zposition Zrotation Xrotation Yrotation 
				JOINT Foot_L
				{
					OFFSET 40.9854 0.0 -1.26872e-05
					CHANNELS 6 Xposition Yposition Zposition Zrotation Xrotation Yrotation 
					JOINT Toes_L
					{
						OFFSET 11.7543 0.0 0.0
						CHANNELS 6 Xposition Yposition Zposition Zrotation Xrotation Yrotation 
						End Site
						{
							OFFSET 0.0 0.0 0.0
						}
					}
				}
			}
		}
		JOINT UpperLeg_R
		{
			OFFSET -2.19251 6.46944 0.0
			CHANNELS 6 Xposition Yposition Zposition Zrotation Xrotation Yrotation 
			JOINT LowerLeg_R
			{
				OFFSET -39.0811 -0.00228153 -0.0401928
				CHANNELS 6 Xposition Yposition Zposition Zrotation Xrotation Yrotation 
				JOINT Foot_R
				{
					OFFSET -40.9854 0.0 0.0
					CHANNELS 6 Xposition Yposition Zposition Zrotation Xrotation Yrotation 
					JOINT Toes_R
					{
						OFFSET -11.7543 0.0 0.0
						CHANNELS 6 Xposition Yposition Zposition Zrotation Xrotation Yrotation 
						End Site
						{
							OFFSET 0.0 0.0 0.0
						}
					}
				}
			}
		}
	}
}
MOTION
Frames:	9
Frame Time:	0.0333333
0.000000 0.000000 0.000000 0.000000 0.000000 -0.000000 -2.210030 92.935700 -0.446857 87.366500 3.437410 -0.276856 15.735700 0.000005 -0.000001 63.379900 87.469200 -61.456100 8.984550 -0.406207 -0.000000 -3.198320 -2.450870 3.780470 16.377300 -0.000001 -0.000001 3.177670 0.503678 -1.431360 6.456720 -0.000001 -0.000000 1.150660 -0.347377 -1.187860 12.994200 -0.242716 4.980390 -92.043800 6.476180 -72.442700 5.348090 -0.000007 -0.000001 -74.741300 28.765700 1.929430 24.328600 0.000019 0.000005 15.380900 28.311000 -30.115200 22.291600 -0.000001 0.000005 -3.187910 4.995570 7.413470 12.994500 -0.242716 -4.980390 88.902900 3.578600 -72.944000 -5.348130 -0.000001 -0.000004 -71.213400 29.681500 -5.256420 -24.328900 0.000322 -0.000009 2.351540 7.704280 -17.037900 -22.291500 -0.000108 -0.000004 1.822140 5.223110 2.132970 -2.192480 -6.469440 -0.000000 -175.314000 3.959520 -4.333620 39.081100 -0.000007 -0.000012 0.188584 -0.535363 19.405400 40.985400 -0.000006 -0.000013 1.296090 10.907900 -71.841000 11.754300 -0.000000 0.000003 -0.000172 0.170466 -9.662650 -2.192510 6.469440 -0.000001 -174.396000 9.009920 -179.259000 -39.081100 -0.002282 -0.040193 0.020996 -0.086526 11.535600 -40.985400 0.000008 0.000006 -0.535799 2.088470 -68.432500 -11.754300 -0.000006 -0.000006 -0.009314 0.266105 -5.763630
0.000000 0.000000 0.000000 0.000000 0.000000 -0.000000 -2.225990 92.960500 -0.523087 87.311900 3.272790 -0.482492 15.735700 0.000005 -0.000001 63.148700 87.452300 -61.173700 8.984550 -0.406207 -0.000000 -3.175360 -2.488920 3.882270 16.377300 -0.000001 -0.000001 2.833600 0.525882 -1.585830 6.456720 -0.000001 -0.000000 0.881985 -0.304984 -1.490790 12.994200 -0.242716 4.980390 -91.997300 6.375360 -72.564900 5.348090 -0.000007 -0.000001 -74.365600 29.492500 1.873620 24.328600 0.000019 0.000005 16.025900 28.503300 -31.043900 22.291600 -0.000001 0.000005 -3.273990 5.006660 7.177570 12.994500 -0.242716 -4.980390 88.946400 3.460110 -73.053000 -5.348130 -0.000001 -0.000004 -71.231700 29.726400 -5.429980 -24.328900 0.000322 -0.000009 2.329010 7.599770 -17.101300 -22.291500 -0.000108 -0.000004 1.800470 5.222090 2.159240 -2.192480 -6.469440 -0.000000 -175.229000 3.869620 -4.560020 39.081100 -0.000007 -0.000012 0.185136 -0.527036 19.355600 40.985400 -0.000006 -0.000013 1.079330 10.878800 -71.695000 11.754300 -0.000000 0.000003 -0.000271 0.172061 -9.597880 -2.192510 6.469440 -0.000001 -174.312000 8.781040 -179.443000 -39.081100 -0.002282 -0.040193 0.019402 -0.079991 11.356400 -40.985400 0.000008 0.000006 -0.668049 2.085610 -68.260800 -11.754300 -0.000006 -0.000006 -0.009331 0.266233 -5.758380
0.000000 0.000000 0.000000 0.000000 0.000000 -0.000000 -2.238360 92.984600 -0.586199 87.277000 3.107240 -0.631496 15.735700 0.000005 -0.000001 63.507200 87.409400 -61.481600 8.984550 -0.406207 -0.000000 -3.082730 -2.501940 3.984930 16.377300 -0.000001 -0.000001 2.445550 0.537298 -1.745660 6.456720 -0.000001 -0.000000 0.540058 -0.334908 -1.910620 12.994200 -0.242716 4.980390 -91.967000 6.295710 -72.609900 5.348090 -0.000007 -0.000001 -73.916500 29.781200 1.733340 24.328600 0.000019 0.000005 17.125400 28.999200 -32.438900 22.291600 -0.000001 0.000005 -3.521820 5.029410 6.687510 12.994500 -0.242716 -4.980390 88.969800 3.389010 -73.081300 -5.348130 -0.000001 -0.000004 -71.136000 29.758800 -5.699240 -24.328900 0.000322 -0.000009 2.330360 7.590270 -17.130800 -22.291500 -0.000108 -0.000004 1.794110 5.224770 2.090530 -2.192480 -6.469440 -0.000000 -175.149000 3.751960 -4.712250 39.081100 -0.000007 -0.000012 0.176436 -0.504487 19.276800 40.985400 -0.000006 -0.000013 0.834165 10.884300 -71.506600 11.754300 -0.000000 0.000003 -0.000189 0.170748 -9.651200 -2.192510 6.469440 -0.000001 -174.268000 8.636200 -179.549000 -39.081100 -0.002282 -0.040193 0.016511 -0.066797 11.157400 -40.985400 0.000008 0.000006 -0.877775 2.149590 -67.978700 -11.754300 -0.000006 -0.000006 -0.009118 0.264592 -5.825490
0.000000 0.000000 0.000000 0.000000 0.000000 -0.000000 -2.260580 93.009300 -0.670303 87.235200 2.962520 -0.746247 15.735700 0.000005 -0.000001 63.947400 87.365500 -61.879400 8.984550 -0.406207 -0.000000 -2.985050 -2.507090 4.071650 16.377300 -0.000001 -0.000001 2.054840 0.537738 -1.958960 6.456720 -0.000001 -0.000000 0.183192 -0.462348 -2.341990 12.994200 -0.242716 4.980390 -91.931600 6.190480 -72.633300 5.348090 -0.000007 -0.000001 -73.438200 29.239800 1.701840 24.328600 0.000019 0.000005 18.102600 28.665000 -34.273800 22.291600 -0.000001 0.000005 -3.608780 5.038900 6.480730 12.994500 -0.242716 -4.980390 88.989300 3.326820 -73.090500 -5.348130 -0.000001 -0.000004 -71.086800 29.671400 -5.872510 -24.328900 0.000322 -0.000009 2.373940 7.680360 -17.240900 -22.291500 -0.000108 -0.000004 1.815100 5.221210 2.181790 -2.192480 -6.469440 -0.000000 -175.060000 3.655240 -4.848180 39.081100 -0.000007 -0.000012 0.169868 -0.487219 19.221300 40.985400 -0.000006 -0.000013 0.565474 10.888200 -71.360400 11.754300 -0.000000 0.000003 -0.000211 0.171098 -9.636960 -2.192510 6.469440 -0.000001 -174.207000 8.397050 -179.654000 -39.081100 -0.002282 -0.040193 0.014842 -0.059163 11.004400 -40.985400 0.000008 0.000006 -1.066150 2.123550 -67.821500 -11.754300 -0.000006 -0.000006 -0.009330 0.266226 -5.758670
0.000000 0.000000 0.000000 0.000000 0.000000 -0.000000 -2.294340 93.024200 -0.732130 87.180000 2.847210 -0.853234 15.735700 0.000005 -0.000001 64.201100 87.304300 -62.099200 8.984550 -0.406207 -0.000000 -2.863190 -2.540330 4.141230 16.377300 -0.000001 -0.000001 1.588070 0.493194 -2.133380 6.456720 -0.000001 -0.000000 -0.212630 -0.545424 -2.857010 12.994200 -0.242716 4.980390 -91.916100 6.128410 -72.600300 5.348090 -0.000007 -0.000001 -72.816000 27.700200 1.847020 24.328600 0.000019 0.000005 19.853300 28.367400 -37.233200 22.291600 -0.000001 0.000005 -3.870490 5.062430 5.961810 12.994500 -0.242716 -4.980390 89.009000 3.273250 -73.145700 -5.348130 -0.000001 -0.000004 -71.106800 29.366600 -5.998100 -24.328900 0.000322 -0.000009 2.365020 7.616420 -17.314800 -22.291500 -0.000108 -0.000004 1.927970 5.224230 2.104340 -2.192480 -6.469440 -0.000000 -174.962000 3.617120 -5.009780 39.081100 -0.000007 -0.000012 0.165063 -0.473309 19.226200 40.985400 -0.000006 -0.000013 0.348005 10.830200 -71.212200 11.754300 -0.000000 0.000003 -0.000193 0.170810 -9.648680 -2.192510 6.469440 -0.000001 -174.133000 8.319320 -179.750000 -39.081100 -0.002282 -0.040193 0.013273 -0.051714 10.875200 -40.985400 0.000008 0.000006 -1.231500 2.175140 -67.644100 -11.754300 -0.000006 -0.000006 -0.009303 0.266018 -5.767170
0.000000 0.000000 0.000000 0.000000 0.000000 -0.000000 -2.347370 93.048100 -0.814951 87.145600 2.720930 -0.978568 15.735700 0.000005 -0.000001 64.764800 87.282900 -62.655400 8.984550 -0.406207 -0.000000 -2.801960 -2.510320 4.158170 16.377300 -0.000001 -0.000001 1.142480 0.413953 -2.295770 6.456720 -0.000001 -0.000000 -0.548089 -0.764648 -3.431150 12.994200 -0.242716 4.980390 -91.895100 6.025230 -72.504100 5.348090 -0.000007 -0.000001 -72.105400 25.378000 2.092910 24.328600 0.000019 0.000005 22.253600 27.851500 -41.213600 22.291600 -0.000001 0.000005 -3.589330 5.062800 5.953660 12.994500 -0.242716 -4.980390 89.026800 3.221000 -73.179000 -5.348130 -0.000001 -0.000004 -71.195200 29.040900 -5.954250 -24.328900 0.000322 -0.000009 2.354530 7.510550 -17.469500 -22.291500 -0.000108 -0.000004 1.965010 5.225290 2.077050 -2.192480 -6.469440 -0.000000 -174.840000 3.538370 -5.179060 39.081100 -0.000007 -0.000012 0.155723 -0.447175 19.200200 40.985400 -0.000006 -0.000013 -0.080566 10.888200 -71.056300 11.754300 -0.000000 0.000003 -0.000334 0.173062 -9.557200 -2.192510 6.469440 -0.000001 -174.061000 8.153500 -179.831000 -39.081100 -0.002282 -0.040193 0.011377 -0.042694 10.663900 -40.985400 0.000008 0.000006 -1.340040 2.183550 -67.462400 -11.754300 -0.000006 -0.000006 -0.008994 0.263627 -5.864900
0.000000 0.000000 0.000000 0.000000 0.000000 -0.000000 -2.403060 93.045800 -0.870457 87.109800 2.590320 -1.055260 15.735700 0.000005 -0.000001 65.756500 87.259300 -63.662900 8.984550 -0.406207 -0.000000 -2.721100 -2.441410 4.130020 16.377300 -0.000001 -0.000001 0.733446 0.279515 -2.520890 6.456720 -0.000001 -0.000000 -0.924521 -1.076880 -3.928370 12.994200 -0.242716 4.980390 -91.873600 5.907760 -72.368800 5.348090 -0.000007 -0.000001 -71.301900 22.185100 2.405830 24.328600 0.000019 0.000005 25.545800 27.109700 -46.365700 22.291600 -0.000001 0.000005 -3.194420 5.052040 6.192180 12.994500 -0.242716 -4.980390 89.035500 3.206180 -73.248100 -5.348130 -0.000001 -0.000004 -71.325800 28.613700 -5.771570 -24.328900 0.000322 -0.000009 2.275380 7.158530 -17.692600 -22.291500 -0.000108 -0.000004 2.074630 5.225300 2.076890 -2.192480 -6.469440 -0.000000 -174.756000 3.449940 -5.334830 39.081100 -0.000007 -0.000012 0.155311 -0.443875 19.285100 40.985400 -0.000006 -0.000013 -0.185421 10.869300 -71.003100 11.754300 -0.000000 0.000003 -0.000351 0.173330 -9.546320 -2.192510 6.469440 -0.000001 -173.957000 8.064440 -179.956000 -39.081100 -0.002282 -0.040193 0.012269 -0.047397 10.671300 -40.985400 0.000008 0.000006 -1.220410 2.161760 -67.430800 -11.754300 -0.000006 -0.000006 -0.009294 0.265951 -5.769930
0.000000 0.000000 0.000000 0.000000 0.000000 -0.000000 -2.484990 93.053100 -0.951598 87.061000 2.573050 -1.189770 15.735700 0.000005 -0.000001 66.257700 87.258000 -64.184500 8.984550 -0.406207 -0.000000 -2.700480 -2.396430 4.090520 16.377300 -0.000001 -0.000001 0.356903 0.095228 -2.739610 6.456720 -0.000001 -0.000000 -1.305970 -1.517870 -4.487410 12.994200 -0.242716 4.980390 -91.860900 5.820900 -72.237200 5.348090 -0.000007 -0.000001 -70.363500 18.687800 2.776890 24.328600 0.000019 0.000005 29.981500 25.949700 -52.820100 22.291600 -0.000001 0.000005 -2.383980 5.019910 6.892970 12.994500 -0.242716 -4.980390 89.036000 3.218230 -73.315800 -5.348130 -0.000001 -0.000004 -71.445300 28.100500 -5.524420 -24.328900 0.000322 -0.000009 2.327060 7.205350 -17.959600 -22.291500 -0.000108 -0.000004 2.166150 5.223550 2.121750 -2.192480 -6.469440 -0.000000 -174.601000 3.446370 -5.582520 39.081100 -0.000007 -0.000012 0.148590 -0.423003 19.355200 40.985400 -0.000006 -0.000013 -0.517245 10.939600 -70.840800 11.754300 -0.000000 0.000003 -0.000079 0.168940 -9.724620 -2.192510 6.469440 -0.000001 -173.831000 7.998960 179.897000 -39.081100 -0.002282 -0.040193 0.011882 -0.045817 10.563000 -40.985400 0.000008 0.000006 -1.231840 2.154520 -67.278000 -11.754300 -0.000006 -0.000006 -0.008799 0.262105 -5.927120
0.000000 0.000000 0.000000 0.000000 0.000000 -0.000000 -2.588740 93.041900 -0.982268 86.967700 2.554020 -1.112370 15.735700 0.000005 -0.000001 67.386800 87.207200 -65.351600 8.984550 -0.406207 -0.000000 -2.566120 -2.330370 4.018470 16.377300 -0.000001 -0.000001 0.062232 -0.140162 -2.988230 6.456720 -0.000001 -0.000000 -1.644400 -2.056470 -4.942230 12.994200 -0.242716 4.980390 -91.836900 5.684230 -72.058200 5.348090 -0.000007 -0.000001 -69.342400 15.182500 3.140600 24.328600 0.000019 0.000005 34.215200 23.383000 -59.729600 22.291600 -0.000001 0.000005 -1.067420 4.989460 7.542570 12.994500 -0.242716 -4.980390 89.017200 3.294490 -73.379800 -5.348130 -0.000001 -0.000004 -71.498400 27.768200 -5.268730 -24.328900 0.000322 -0.000009 2.322800 7.098870 -18.178800 -22.291500 -0.000108 -0.000004 2.194060 5.223900 2.112680 -2.192480 -6.469440 -0.000000 -174.421000 3.562740 -5.638240 39.081100 -0.000007 -0.000012 0.146647 -0.412993 19.549300 40.985400 -0.000006 -0.000013 -0.751780 10.877600 -70.845300 11.754300 -0.000000 0.000003 -0.000097 0.169237 -9.712560 -2.192510 6.469440 -0.000001 -173.666000 7.998870 179.966000 -39.081100 -0.002282 -0.040193 0.011339 -0.043044 10.529500 -40.985400 0.000008 0.000006 -1.158870 2.117620 -67.282000 -11.754300 -0.000006 -0.000006 -0.009174 0.265027 -5.807700
